<mxfile host="app.diagrams.net" modified="2023-10-12T02:19:48.402Z" agent="Mozilla/5.0 (Macintosh; Intel Mac OS X 10_15_7) AppleWebKit/537.36 (KHTML, like Gecko) Chrome/117.0.0.0 Safari/537.36" etag="9SGZSenU8B887YojQWw7" version="22.0.4" type="github">
  <diagram name="Page-1" id="X_IS5OQpGwMDQToJzZf-">
    <mxGraphModel dx="1314" dy="793" grid="1" gridSize="10" guides="1" tooltips="1" connect="1" arrows="1" fold="1" page="1" pageScale="1" pageWidth="3300" pageHeight="4681" background="#ffffff" math="0" shadow="0">
      <root>
        <mxCell id="0" />
        <mxCell id="1" parent="0" />
        <mxCell id="QWXdeelTslBIVpJSP7KH-3" value="User Authentication" style="shape=rect;html=1;verticalAlign=top;fontStyle=1;whiteSpace=wrap;align=center;" vertex="1" parent="1">
          <mxGeometry x="300" y="85" width="290" height="310" as="geometry" />
        </mxCell>
        <mxCell id="QWXdeelTslBIVpJSP7KH-2" value="Login" style="ellipse;whiteSpace=wrap;html=1;" vertex="1" parent="1">
          <mxGeometry x="400" y="130" width="90" height="40" as="geometry" />
        </mxCell>
        <mxCell id="QWXdeelTslBIVpJSP7KH-4" value="Register" style="ellipse;whiteSpace=wrap;html=1;" vertex="1" parent="1">
          <mxGeometry x="400" y="190" width="90" height="40" as="geometry" />
        </mxCell>
        <mxCell id="QWXdeelTslBIVpJSP7KH-5" value="Reset password" style="ellipse;whiteSpace=wrap;html=1;" vertex="1" parent="1">
          <mxGeometry x="390" y="250" width="110" height="50" as="geometry" />
        </mxCell>
        <mxCell id="QWXdeelTslBIVpJSP7KH-6" value="Login with social media" style="ellipse;whiteSpace=wrap;html=1;" vertex="1" parent="1">
          <mxGeometry x="390" y="320" width="110" height="50" as="geometry" />
        </mxCell>
        <mxCell id="QWXdeelTslBIVpJSP7KH-7" value="User" style="shape=umlActor;html=1;verticalLabelPosition=bottom;verticalAlign=top;align=center;" vertex="1" parent="1">
          <mxGeometry x="210" y="130" width="30" height="60" as="geometry" />
        </mxCell>
        <mxCell id="QWXdeelTslBIVpJSP7KH-8" value="Chef" style="shape=umlActor;html=1;verticalLabelPosition=bottom;verticalAlign=top;align=center;" vertex="1" parent="1">
          <mxGeometry x="210" y="280" width="30" height="60" as="geometry" />
        </mxCell>
        <mxCell id="QWXdeelTslBIVpJSP7KH-10" value="" style="edgeStyle=none;html=1;endArrow=none;verticalAlign=bottom;rounded=0;entryX=0;entryY=0.5;entryDx=0;entryDy=0;" edge="1" parent="1" target="QWXdeelTslBIVpJSP7KH-2">
          <mxGeometry width="160" relative="1" as="geometry">
            <mxPoint x="250" y="150" as="sourcePoint" />
            <mxPoint x="390" y="150" as="targetPoint" />
          </mxGeometry>
        </mxCell>
        <mxCell id="QWXdeelTslBIVpJSP7KH-11" value="" style="edgeStyle=none;html=1;endArrow=none;verticalAlign=bottom;rounded=0;entryX=0.029;entryY=0.637;entryDx=0;entryDy=0;entryPerimeter=0;" edge="1" parent="1" target="QWXdeelTslBIVpJSP7KH-4">
          <mxGeometry width="160" relative="1" as="geometry">
            <mxPoint x="250" y="150" as="sourcePoint" />
            <mxPoint x="410" y="160" as="targetPoint" />
          </mxGeometry>
        </mxCell>
        <mxCell id="QWXdeelTslBIVpJSP7KH-12" value="" style="edgeStyle=none;html=1;endArrow=none;verticalAlign=bottom;rounded=0;entryX=0;entryY=0.5;entryDx=0;entryDy=0;" edge="1" parent="1" target="QWXdeelTslBIVpJSP7KH-5">
          <mxGeometry width="160" relative="1" as="geometry">
            <mxPoint x="250" y="150" as="sourcePoint" />
            <mxPoint x="403" y="225" as="targetPoint" />
          </mxGeometry>
        </mxCell>
        <mxCell id="QWXdeelTslBIVpJSP7KH-13" value="" style="edgeStyle=none;html=1;endArrow=none;verticalAlign=bottom;rounded=0;entryX=0;entryY=0.5;entryDx=0;entryDy=0;" edge="1" parent="1" target="QWXdeelTslBIVpJSP7KH-6">
          <mxGeometry width="160" relative="1" as="geometry">
            <mxPoint x="250" y="150" as="sourcePoint" />
            <mxPoint x="400" y="285" as="targetPoint" />
          </mxGeometry>
        </mxCell>
        <mxCell id="QWXdeelTslBIVpJSP7KH-15" value="" style="edgeStyle=none;html=1;endArrow=none;verticalAlign=bottom;rounded=0;exitX=1;exitY=0.3333333333333333;exitDx=0;exitDy=0;exitPerimeter=0;entryX=0;entryY=0.5;entryDx=0;entryDy=0;" edge="1" parent="1" source="QWXdeelTslBIVpJSP7KH-8" target="QWXdeelTslBIVpJSP7KH-2">
          <mxGeometry width="160" relative="1" as="geometry">
            <mxPoint x="350" y="250" as="sourcePoint" />
            <mxPoint x="510" y="250" as="targetPoint" />
          </mxGeometry>
        </mxCell>
        <mxCell id="QWXdeelTslBIVpJSP7KH-16" value="" style="edgeStyle=none;html=1;endArrow=none;verticalAlign=bottom;rounded=0;" edge="1" parent="1">
          <mxGeometry width="160" relative="1" as="geometry">
            <mxPoint x="240" y="300" as="sourcePoint" />
            <mxPoint x="400" y="210" as="targetPoint" />
          </mxGeometry>
        </mxCell>
        <mxCell id="QWXdeelTslBIVpJSP7KH-17" value="" style="edgeStyle=none;html=1;endArrow=none;verticalAlign=bottom;rounded=0;entryX=0;entryY=0.5;entryDx=0;entryDy=0;exitX=1;exitY=0.3333333333333333;exitDx=0;exitDy=0;exitPerimeter=0;" edge="1" parent="1" source="QWXdeelTslBIVpJSP7KH-8" target="QWXdeelTslBIVpJSP7KH-5">
          <mxGeometry width="160" relative="1" as="geometry">
            <mxPoint x="250" y="310" as="sourcePoint" />
            <mxPoint x="410" y="220" as="targetPoint" />
          </mxGeometry>
        </mxCell>
        <mxCell id="QWXdeelTslBIVpJSP7KH-18" value="" style="edgeStyle=none;html=1;endArrow=none;verticalAlign=bottom;rounded=0;entryX=0;entryY=0.5;entryDx=0;entryDy=0;" edge="1" parent="1" target="QWXdeelTslBIVpJSP7KH-6">
          <mxGeometry width="160" relative="1" as="geometry">
            <mxPoint x="240" y="300" as="sourcePoint" />
            <mxPoint x="400" y="285" as="targetPoint" />
          </mxGeometry>
        </mxCell>
        <mxCell id="QWXdeelTslBIVpJSP7KH-19" value="Chef Booking" style="shape=rect;html=1;verticalAlign=top;fontStyle=1;whiteSpace=wrap;align=center;" vertex="1" parent="1">
          <mxGeometry x="770" y="85" width="350" height="615" as="geometry" />
        </mxCell>
        <mxCell id="QWXdeelTslBIVpJSP7KH-20" value="Fining chef" style="ellipse;whiteSpace=wrap;html=1;" vertex="1" parent="1">
          <mxGeometry x="870" y="120" width="90" height="40" as="geometry" />
        </mxCell>
        <mxCell id="QWXdeelTslBIVpJSP7KH-21" value="Request booking" style="ellipse;whiteSpace=wrap;html=1;" vertex="1" parent="1">
          <mxGeometry x="870" y="180" width="90" height="40" as="geometry" />
        </mxCell>
        <mxCell id="QWXdeelTslBIVpJSP7KH-22" value="Accepting booking" style="ellipse;whiteSpace=wrap;html=1;" vertex="1" parent="1">
          <mxGeometry x="860" y="237.5" width="110" height="50" as="geometry" />
        </mxCell>
        <mxCell id="QWXdeelTslBIVpJSP7KH-23" value="Cancel booking" style="ellipse;whiteSpace=wrap;html=1;" vertex="1" parent="1">
          <mxGeometry x="860" y="300" width="110" height="50" as="geometry" />
        </mxCell>
        <mxCell id="QWXdeelTslBIVpJSP7KH-24" value="User" style="shape=umlActor;html=1;verticalLabelPosition=bottom;verticalAlign=top;align=center;" vertex="1" parent="1">
          <mxGeometry x="680" y="130" width="40" height="60" as="geometry" />
        </mxCell>
        <mxCell id="QWXdeelTslBIVpJSP7KH-25" value="Chef" style="shape=umlActor;html=1;verticalLabelPosition=bottom;verticalAlign=top;align=center;" vertex="1" parent="1">
          <mxGeometry x="680" y="280" width="30" height="60" as="geometry" />
        </mxCell>
        <mxCell id="QWXdeelTslBIVpJSP7KH-34" value="Rescheduling booking" style="ellipse;whiteSpace=wrap;html=1;" vertex="1" parent="1">
          <mxGeometry x="860" y="370" width="110" height="50" as="geometry" />
        </mxCell>
        <mxCell id="QWXdeelTslBIVpJSP7KH-41" value="" style="edgeStyle=none;html=1;endArrow=none;verticalAlign=bottom;rounded=0;exitX=1;exitY=0.3333333333333333;exitDx=0;exitDy=0;exitPerimeter=0;entryX=0;entryY=0.5;entryDx=0;entryDy=0;" edge="1" parent="1" source="QWXdeelTslBIVpJSP7KH-24" target="QWXdeelTslBIVpJSP7KH-20">
          <mxGeometry width="160" relative="1" as="geometry">
            <mxPoint x="850" y="310" as="sourcePoint" />
            <mxPoint x="1010" y="310" as="targetPoint" />
          </mxGeometry>
        </mxCell>
        <mxCell id="QWXdeelTslBIVpJSP7KH-42" value="" style="edgeStyle=none;html=1;endArrow=none;verticalAlign=bottom;rounded=0;entryX=0;entryY=0.621;entryDx=0;entryDy=0;entryPerimeter=0;" edge="1" parent="1" target="QWXdeelTslBIVpJSP7KH-21">
          <mxGeometry width="160" relative="1" as="geometry">
            <mxPoint x="720" y="150" as="sourcePoint" />
            <mxPoint x="880" y="150" as="targetPoint" />
          </mxGeometry>
        </mxCell>
        <mxCell id="QWXdeelTslBIVpJSP7KH-43" value="" style="edgeStyle=none;html=1;endArrow=none;verticalAlign=bottom;rounded=0;entryX=0;entryY=0.5;entryDx=0;entryDy=0;exitX=1;exitY=0.3333333333333333;exitDx=0;exitDy=0;exitPerimeter=0;" edge="1" parent="1" source="QWXdeelTslBIVpJSP7KH-24" target="QWXdeelTslBIVpJSP7KH-23">
          <mxGeometry width="160" relative="1" as="geometry">
            <mxPoint x="730" y="160" as="sourcePoint" />
            <mxPoint x="880" y="215" as="targetPoint" />
          </mxGeometry>
        </mxCell>
        <mxCell id="QWXdeelTslBIVpJSP7KH-44" value="" style="edgeStyle=none;html=1;endArrow=none;verticalAlign=bottom;rounded=0;entryX=0;entryY=0.5;entryDx=0;entryDy=0;" edge="1" parent="1" target="QWXdeelTslBIVpJSP7KH-34">
          <mxGeometry width="160" relative="1" as="geometry">
            <mxPoint x="720" y="150" as="sourcePoint" />
            <mxPoint x="870" y="335" as="targetPoint" />
          </mxGeometry>
        </mxCell>
        <mxCell id="QWXdeelTslBIVpJSP7KH-45" value="" style="edgeStyle=none;html=1;endArrow=none;verticalAlign=bottom;rounded=0;entryX=0.01;entryY=0.621;entryDx=0;entryDy=0;entryPerimeter=0;" edge="1" parent="1" target="QWXdeelTslBIVpJSP7KH-22">
          <mxGeometry width="160" relative="1" as="geometry">
            <mxPoint x="720" y="300" as="sourcePoint" />
            <mxPoint x="1010" y="310" as="targetPoint" />
          </mxGeometry>
        </mxCell>
        <mxCell id="QWXdeelTslBIVpJSP7KH-46" value="" style="edgeStyle=none;html=1;endArrow=none;verticalAlign=bottom;rounded=0;entryX=0;entryY=0.5;entryDx=0;entryDy=0;" edge="1" parent="1" target="QWXdeelTslBIVpJSP7KH-23">
          <mxGeometry width="160" relative="1" as="geometry">
            <mxPoint x="720" y="300" as="sourcePoint" />
            <mxPoint x="871" y="279" as="targetPoint" />
          </mxGeometry>
        </mxCell>
        <mxCell id="QWXdeelTslBIVpJSP7KH-47" value="Create Post" style="shape=rect;html=1;verticalAlign=top;fontStyle=1;whiteSpace=wrap;align=center;" vertex="1" parent="1">
          <mxGeometry x="1350" y="80" width="290" height="440" as="geometry" />
        </mxCell>
        <mxCell id="QWXdeelTslBIVpJSP7KH-48" value="Create post" style="ellipse;whiteSpace=wrap;html=1;" vertex="1" parent="1">
          <mxGeometry x="1450" y="115" width="90" height="40" as="geometry" />
        </mxCell>
        <mxCell id="QWXdeelTslBIVpJSP7KH-49" value="Edit post" style="ellipse;whiteSpace=wrap;html=1;" vertex="1" parent="1">
          <mxGeometry x="1450" y="175" width="90" height="40" as="geometry" />
        </mxCell>
        <mxCell id="QWXdeelTslBIVpJSP7KH-50" value="Post new post" style="ellipse;whiteSpace=wrap;html=1;" vertex="1" parent="1">
          <mxGeometry x="1440" y="232.5" width="110" height="50" as="geometry" />
        </mxCell>
        <mxCell id="QWXdeelTslBIVpJSP7KH-51" value="Like and comment on post" style="ellipse;whiteSpace=wrap;html=1;" vertex="1" parent="1">
          <mxGeometry x="1440" y="295" width="110" height="50" as="geometry" />
        </mxCell>
        <mxCell id="QWXdeelTslBIVpJSP7KH-54" value="delete post" style="ellipse;whiteSpace=wrap;html=1;" vertex="1" parent="1">
          <mxGeometry x="1440" y="365" width="110" height="50" as="geometry" />
        </mxCell>
        <mxCell id="QWXdeelTslBIVpJSP7KH-62" value="View chef profile" style="ellipse;whiteSpace=wrap;html=1;" vertex="1" parent="1">
          <mxGeometry x="860" y="440" width="110" height="50" as="geometry" />
        </mxCell>
        <mxCell id="QWXdeelTslBIVpJSP7KH-63" value="Make payment" style="ellipse;whiteSpace=wrap;html=1;" vertex="1" parent="1">
          <mxGeometry x="860" y="500" width="110" height="50" as="geometry" />
        </mxCell>
        <mxCell id="QWXdeelTslBIVpJSP7KH-64" value="Rating and feedback" style="ellipse;whiteSpace=wrap;html=1;" vertex="1" parent="1">
          <mxGeometry x="860" y="570" width="110" height="50" as="geometry" />
        </mxCell>
        <mxCell id="QWXdeelTslBIVpJSP7KH-65" value="" style="edgeStyle=none;html=1;endArrow=none;verticalAlign=bottom;rounded=0;entryX=0;entryY=0.5;entryDx=0;entryDy=0;" edge="1" parent="1" target="QWXdeelTslBIVpJSP7KH-62">
          <mxGeometry width="160" relative="1" as="geometry">
            <mxPoint x="720" y="150" as="sourcePoint" />
            <mxPoint x="870" y="405" as="targetPoint" />
          </mxGeometry>
        </mxCell>
        <mxCell id="QWXdeelTslBIVpJSP7KH-66" value="" style="edgeStyle=none;html=1;endArrow=none;verticalAlign=bottom;rounded=0;entryX=0;entryY=0.5;entryDx=0;entryDy=0;" edge="1" parent="1" target="QWXdeelTslBIVpJSP7KH-63">
          <mxGeometry width="160" relative="1" as="geometry">
            <mxPoint x="720" y="150" as="sourcePoint" />
            <mxPoint x="870" y="475" as="targetPoint" />
          </mxGeometry>
        </mxCell>
        <mxCell id="QWXdeelTslBIVpJSP7KH-67" value="" style="edgeStyle=none;html=1;endArrow=none;verticalAlign=bottom;rounded=0;entryX=0;entryY=0.5;entryDx=0;entryDy=0;" edge="1" parent="1" target="QWXdeelTslBIVpJSP7KH-64">
          <mxGeometry width="160" relative="1" as="geometry">
            <mxPoint x="720" y="150" as="sourcePoint" />
            <mxPoint x="870" y="535" as="targetPoint" />
          </mxGeometry>
        </mxCell>
        <mxCell id="QWXdeelTslBIVpJSP7KH-68" value="Manage booking" style="ellipse;whiteSpace=wrap;html=1;" vertex="1" parent="1">
          <mxGeometry x="860" y="630" width="110" height="50" as="geometry" />
        </mxCell>
        <mxCell id="QWXdeelTslBIVpJSP7KH-69" value="" style="edgeStyle=none;html=1;endArrow=none;verticalAlign=bottom;rounded=0;entryX=0;entryY=0.5;entryDx=0;entryDy=0;" edge="1" parent="1" target="QWXdeelTslBIVpJSP7KH-68">
          <mxGeometry width="160" relative="1" as="geometry">
            <mxPoint x="720" y="300" as="sourcePoint" />
            <mxPoint x="870" y="335" as="targetPoint" />
          </mxGeometry>
        </mxCell>
        <mxCell id="QWXdeelTslBIVpJSP7KH-72" value="Change booking status" style="ellipse;whiteSpace=wrap;html=1;" vertex="1" parent="1">
          <mxGeometry x="980" y="330" width="110" height="60" as="geometry" />
        </mxCell>
        <mxCell id="QWXdeelTslBIVpJSP7KH-73" value="System" style="shape=umlActor;html=1;verticalLabelPosition=bottom;verticalAlign=top;align=center;" vertex="1" parent="1">
          <mxGeometry x="1180" y="330" width="40" height="60" as="geometry" />
        </mxCell>
        <mxCell id="QWXdeelTslBIVpJSP7KH-75" value="" style="edgeStyle=none;html=1;endArrow=none;verticalAlign=bottom;rounded=0;exitX=1;exitY=0.5;exitDx=0;exitDy=0;" edge="1" parent="1" source="QWXdeelTslBIVpJSP7KH-72">
          <mxGeometry width="160" relative="1" as="geometry">
            <mxPoint x="1060" y="480" as="sourcePoint" />
            <mxPoint x="1170" y="360" as="targetPoint" />
          </mxGeometry>
        </mxCell>
        <mxCell id="QWXdeelTslBIVpJSP7KH-78" value="User" style="shape=umlActor;html=1;verticalLabelPosition=bottom;verticalAlign=top;align=center;" vertex="1" parent="1">
          <mxGeometry x="1270" y="140" width="40" height="60" as="geometry" />
        </mxCell>
        <mxCell id="QWXdeelTslBIVpJSP7KH-79" value="Chef" style="shape=umlActor;html=1;verticalLabelPosition=bottom;verticalAlign=top;align=center;" vertex="1" parent="1">
          <mxGeometry x="1270" y="290" width="30" height="60" as="geometry" />
        </mxCell>
        <mxCell id="QWXdeelTslBIVpJSP7KH-80" value="" style="edgeStyle=none;html=1;endArrow=none;verticalAlign=bottom;rounded=0;exitX=1;exitY=0.3333333333333333;exitDx=0;exitDy=0;exitPerimeter=0;entryX=0;entryY=0.5;entryDx=0;entryDy=0;" edge="1" parent="1" source="QWXdeelTslBIVpJSP7KH-79" target="QWXdeelTslBIVpJSP7KH-48">
          <mxGeometry width="160" relative="1" as="geometry">
            <mxPoint x="1330" y="310" as="sourcePoint" />
            <mxPoint x="1490" y="310" as="targetPoint" />
          </mxGeometry>
        </mxCell>
        <mxCell id="QWXdeelTslBIVpJSP7KH-81" value="" style="edgeStyle=none;html=1;endArrow=none;verticalAlign=bottom;rounded=0;exitX=1;exitY=0.3333333333333333;exitDx=0;exitDy=0;exitPerimeter=0;entryX=-0.043;entryY=0.539;entryDx=0;entryDy=0;entryPerimeter=0;" edge="1" parent="1" source="QWXdeelTslBIVpJSP7KH-79" target="QWXdeelTslBIVpJSP7KH-49">
          <mxGeometry width="160" relative="1" as="geometry">
            <mxPoint x="1310" y="320" as="sourcePoint" />
            <mxPoint x="1460" y="145" as="targetPoint" />
          </mxGeometry>
        </mxCell>
        <mxCell id="QWXdeelTslBIVpJSP7KH-82" value="" style="edgeStyle=none;html=1;endArrow=none;verticalAlign=bottom;rounded=0;exitX=1;exitY=0.3333333333333333;exitDx=0;exitDy=0;exitPerimeter=0;entryX=0;entryY=0.5;entryDx=0;entryDy=0;" edge="1" parent="1" source="QWXdeelTslBIVpJSP7KH-79" target="QWXdeelTslBIVpJSP7KH-50">
          <mxGeometry width="160" relative="1" as="geometry">
            <mxPoint x="1320" y="330" as="sourcePoint" />
            <mxPoint x="1456" y="207" as="targetPoint" />
          </mxGeometry>
        </mxCell>
        <mxCell id="QWXdeelTslBIVpJSP7KH-83" value="" style="edgeStyle=none;html=1;endArrow=none;verticalAlign=bottom;rounded=0;exitX=1;exitY=0.3333333333333333;exitDx=0;exitDy=0;exitPerimeter=0;entryX=0;entryY=0.5;entryDx=0;entryDy=0;" edge="1" parent="1" source="QWXdeelTslBIVpJSP7KH-79" target="QWXdeelTslBIVpJSP7KH-51">
          <mxGeometry width="160" relative="1" as="geometry">
            <mxPoint x="1330" y="340" as="sourcePoint" />
            <mxPoint x="1450" y="268" as="targetPoint" />
          </mxGeometry>
        </mxCell>
        <mxCell id="QWXdeelTslBIVpJSP7KH-84" value="" style="edgeStyle=none;html=1;endArrow=none;verticalAlign=bottom;rounded=0;entryX=0;entryY=0.5;entryDx=0;entryDy=0;" edge="1" parent="1" target="QWXdeelTslBIVpJSP7KH-54">
          <mxGeometry width="160" relative="1" as="geometry">
            <mxPoint x="1300" y="310" as="sourcePoint" />
            <mxPoint x="1450" y="330" as="targetPoint" />
          </mxGeometry>
        </mxCell>
        <mxCell id="QWXdeelTslBIVpJSP7KH-85" value="Report post" style="ellipse;whiteSpace=wrap;html=1;" vertex="1" parent="1">
          <mxGeometry x="1440" y="430" width="110" height="50" as="geometry" />
        </mxCell>
        <mxCell id="QWXdeelTslBIVpJSP7KH-86" value="" style="edgeStyle=none;html=1;endArrow=none;verticalAlign=bottom;rounded=0;exitX=1;exitY=0.3333333333333333;exitDx=0;exitDy=0;exitPerimeter=0;" edge="1" parent="1" source="QWXdeelTslBIVpJSP7KH-78">
          <mxGeometry width="160" relative="1" as="geometry">
            <mxPoint x="1330" y="360" as="sourcePoint" />
            <mxPoint x="1440" y="320" as="targetPoint" />
          </mxGeometry>
        </mxCell>
        <mxCell id="QWXdeelTslBIVpJSP7KH-87" value="" style="edgeStyle=none;html=1;endArrow=none;verticalAlign=bottom;rounded=0;entryX=0;entryY=0.5;entryDx=0;entryDy=0;" edge="1" parent="1" target="QWXdeelTslBIVpJSP7KH-85">
          <mxGeometry width="160" relative="1" as="geometry">
            <mxPoint x="1310" y="160" as="sourcePoint" />
            <mxPoint x="1450" y="330" as="targetPoint" />
          </mxGeometry>
        </mxCell>
        <mxCell id="QWXdeelTslBIVpJSP7KH-88" value="Communication" style="shape=rect;html=1;verticalAlign=top;fontStyle=1;whiteSpace=wrap;align=center;" vertex="1" parent="1">
          <mxGeometry x="1820" y="80" width="290" height="620" as="geometry" />
        </mxCell>
        <mxCell id="QWXdeelTslBIVpJSP7KH-89" value="Send message" style="ellipse;whiteSpace=wrap;html=1;" vertex="1" parent="1">
          <mxGeometry x="1910" y="115" width="110" height="45" as="geometry" />
        </mxCell>
        <mxCell id="QWXdeelTslBIVpJSP7KH-90" value="Delete message" style="ellipse;whiteSpace=wrap;html=1;" vertex="1" parent="1">
          <mxGeometry x="1910" y="175" width="110" height="45" as="geometry" />
        </mxCell>
        <mxCell id="QWXdeelTslBIVpJSP7KH-91" value="Report message" style="ellipse;whiteSpace=wrap;html=1;" vertex="1" parent="1">
          <mxGeometry x="1910" y="232.5" width="110" height="50" as="geometry" />
        </mxCell>
        <mxCell id="QWXdeelTslBIVpJSP7KH-92" value="Block user" style="ellipse;whiteSpace=wrap;html=1;" vertex="1" parent="1">
          <mxGeometry x="1910" y="295" width="110" height="50" as="geometry" />
        </mxCell>
        <mxCell id="QWXdeelTslBIVpJSP7KH-93" value="Receive message" style="ellipse;whiteSpace=wrap;html=1;" vertex="1" parent="1">
          <mxGeometry x="1910" y="365" width="110" height="50" as="geometry" />
        </mxCell>
        <mxCell id="QWXdeelTslBIVpJSP7KH-94" value="User" style="shape=umlActor;html=1;verticalLabelPosition=bottom;verticalAlign=top;align=center;" vertex="1" parent="1">
          <mxGeometry x="1740" y="140" width="40" height="60" as="geometry" />
        </mxCell>
        <mxCell id="QWXdeelTslBIVpJSP7KH-95" value="Chef" style="shape=umlActor;html=1;verticalLabelPosition=bottom;verticalAlign=top;align=center;" vertex="1" parent="1">
          <mxGeometry x="1740" y="290" width="30" height="60" as="geometry" />
        </mxCell>
        <mxCell id="QWXdeelTslBIVpJSP7KH-96" value="" style="edgeStyle=none;html=1;endArrow=none;verticalAlign=bottom;rounded=0;exitX=1;exitY=0.3333333333333333;exitDx=0;exitDy=0;exitPerimeter=0;entryX=0;entryY=0.5;entryDx=0;entryDy=0;" edge="1" parent="1" source="QWXdeelTslBIVpJSP7KH-95" target="QWXdeelTslBIVpJSP7KH-89">
          <mxGeometry width="160" relative="1" as="geometry">
            <mxPoint x="1800" y="310" as="sourcePoint" />
            <mxPoint x="1960" y="310" as="targetPoint" />
          </mxGeometry>
        </mxCell>
        <mxCell id="QWXdeelTslBIVpJSP7KH-97" value="" style="edgeStyle=none;html=1;endArrow=none;verticalAlign=bottom;rounded=0;exitX=1;exitY=0.3333333333333333;exitDx=0;exitDy=0;exitPerimeter=0;entryX=-0.043;entryY=0.539;entryDx=0;entryDy=0;entryPerimeter=0;" edge="1" parent="1" source="QWXdeelTslBIVpJSP7KH-95" target="QWXdeelTslBIVpJSP7KH-90">
          <mxGeometry width="160" relative="1" as="geometry">
            <mxPoint x="1780" y="320" as="sourcePoint" />
            <mxPoint x="1930" y="145" as="targetPoint" />
          </mxGeometry>
        </mxCell>
        <mxCell id="QWXdeelTslBIVpJSP7KH-98" value="" style="edgeStyle=none;html=1;endArrow=none;verticalAlign=bottom;rounded=0;exitX=1;exitY=0.3333333333333333;exitDx=0;exitDy=0;exitPerimeter=0;entryX=0;entryY=0.5;entryDx=0;entryDy=0;" edge="1" parent="1" source="QWXdeelTslBIVpJSP7KH-95" target="QWXdeelTslBIVpJSP7KH-91">
          <mxGeometry width="160" relative="1" as="geometry">
            <mxPoint x="1790" y="330" as="sourcePoint" />
            <mxPoint x="1926" y="207" as="targetPoint" />
          </mxGeometry>
        </mxCell>
        <mxCell id="QWXdeelTslBIVpJSP7KH-99" value="" style="edgeStyle=none;html=1;endArrow=none;verticalAlign=bottom;rounded=0;exitX=1;exitY=0.3333333333333333;exitDx=0;exitDy=0;exitPerimeter=0;entryX=0;entryY=0.5;entryDx=0;entryDy=0;" edge="1" parent="1" source="QWXdeelTslBIVpJSP7KH-95" target="QWXdeelTslBIVpJSP7KH-92">
          <mxGeometry width="160" relative="1" as="geometry">
            <mxPoint x="1800" y="340" as="sourcePoint" />
            <mxPoint x="1920" y="268" as="targetPoint" />
          </mxGeometry>
        </mxCell>
        <mxCell id="QWXdeelTslBIVpJSP7KH-100" value="" style="edgeStyle=none;html=1;endArrow=none;verticalAlign=bottom;rounded=0;entryX=0;entryY=0.5;entryDx=0;entryDy=0;" edge="1" parent="1" target="QWXdeelTslBIVpJSP7KH-93">
          <mxGeometry width="160" relative="1" as="geometry">
            <mxPoint x="1770" y="310" as="sourcePoint" />
            <mxPoint x="1920" y="330" as="targetPoint" />
          </mxGeometry>
        </mxCell>
        <mxCell id="QWXdeelTslBIVpJSP7KH-101" value="Mute/Unmute chat" style="ellipse;whiteSpace=wrap;html=1;" vertex="1" parent="1">
          <mxGeometry x="1910" y="430" width="110" height="50" as="geometry" />
        </mxCell>
        <mxCell id="QWXdeelTslBIVpJSP7KH-102" value="" style="edgeStyle=none;html=1;endArrow=none;verticalAlign=bottom;rounded=0;exitX=1;exitY=0.3333333333333333;exitDx=0;exitDy=0;exitPerimeter=0;" edge="1" parent="1" source="QWXdeelTslBIVpJSP7KH-94">
          <mxGeometry width="160" relative="1" as="geometry">
            <mxPoint x="1800" y="360" as="sourcePoint" />
            <mxPoint x="1910" y="320" as="targetPoint" />
          </mxGeometry>
        </mxCell>
        <mxCell id="QWXdeelTslBIVpJSP7KH-103" value="" style="edgeStyle=none;html=1;endArrow=none;verticalAlign=bottom;rounded=0;entryX=0;entryY=0.5;entryDx=0;entryDy=0;" edge="1" parent="1" target="QWXdeelTslBIVpJSP7KH-101">
          <mxGeometry width="160" relative="1" as="geometry">
            <mxPoint x="1780" y="160" as="sourcePoint" />
            <mxPoint x="1920" y="330" as="targetPoint" />
          </mxGeometry>
        </mxCell>
        <mxCell id="QWXdeelTslBIVpJSP7KH-105" value="Pin chat" style="ellipse;whiteSpace=wrap;html=1;" vertex="1" parent="1">
          <mxGeometry x="1910" y="500" width="110" height="50" as="geometry" />
        </mxCell>
        <mxCell id="QWXdeelTslBIVpJSP7KH-106" value="Search messages" style="ellipse;whiteSpace=wrap;html=1;" vertex="1" parent="1">
          <mxGeometry x="1910" y="570" width="110" height="50" as="geometry" />
        </mxCell>
        <mxCell id="QWXdeelTslBIVpJSP7KH-107" value="" style="edgeStyle=none;html=1;endArrow=none;verticalAlign=bottom;rounded=0;exitX=1;exitY=0.3333333333333333;exitDx=0;exitDy=0;exitPerimeter=0;" edge="1" parent="1" source="QWXdeelTslBIVpJSP7KH-94">
          <mxGeometry width="160" relative="1" as="geometry">
            <mxPoint x="1710" y="114.05000000000001" as="sourcePoint" />
            <mxPoint x="1910" y="140" as="targetPoint" />
          </mxGeometry>
        </mxCell>
        <mxCell id="QWXdeelTslBIVpJSP7KH-108" value="" style="edgeStyle=none;html=1;endArrow=none;verticalAlign=bottom;rounded=0;exitX=1;exitY=0.3333333333333333;exitDx=0;exitDy=0;exitPerimeter=0;entryX=0;entryY=0.5;entryDx=0;entryDy=0;" edge="1" parent="1" source="QWXdeelTslBIVpJSP7KH-94" target="QWXdeelTslBIVpJSP7KH-90">
          <mxGeometry width="160" relative="1" as="geometry">
            <mxPoint x="1790" y="170" as="sourcePoint" />
            <mxPoint x="1920" y="150" as="targetPoint" />
          </mxGeometry>
        </mxCell>
        <mxCell id="QWXdeelTslBIVpJSP7KH-109" value="" style="edgeStyle=none;html=1;endArrow=none;verticalAlign=bottom;rounded=0;entryX=0;entryY=0.5;entryDx=0;entryDy=0;" edge="1" parent="1" target="QWXdeelTslBIVpJSP7KH-91">
          <mxGeometry width="160" relative="1" as="geometry">
            <mxPoint x="1780" y="160" as="sourcePoint" />
            <mxPoint x="1920" y="208" as="targetPoint" />
          </mxGeometry>
        </mxCell>
        <mxCell id="QWXdeelTslBIVpJSP7KH-110" value="" style="edgeStyle=none;html=1;endArrow=none;verticalAlign=bottom;rounded=0;entryX=0;entryY=0.5;entryDx=0;entryDy=0;" edge="1" parent="1" target="QWXdeelTslBIVpJSP7KH-93">
          <mxGeometry width="160" relative="1" as="geometry">
            <mxPoint x="1780" y="160" as="sourcePoint" />
            <mxPoint x="1920" y="268" as="targetPoint" />
          </mxGeometry>
        </mxCell>
        <mxCell id="QWXdeelTslBIVpJSP7KH-111" value="" style="edgeStyle=none;html=1;endArrow=none;verticalAlign=bottom;rounded=0;entryX=0;entryY=0.5;entryDx=0;entryDy=0;" edge="1" parent="1" target="QWXdeelTslBIVpJSP7KH-105">
          <mxGeometry width="160" relative="1" as="geometry">
            <mxPoint x="1780" y="160" as="sourcePoint" />
            <mxPoint x="1920" y="465" as="targetPoint" />
          </mxGeometry>
        </mxCell>
        <mxCell id="QWXdeelTslBIVpJSP7KH-112" value="" style="edgeStyle=none;html=1;endArrow=none;verticalAlign=bottom;rounded=0;entryX=0;entryY=0.5;entryDx=0;entryDy=0;" edge="1" parent="1" target="QWXdeelTslBIVpJSP7KH-106">
          <mxGeometry width="160" relative="1" as="geometry">
            <mxPoint x="1780" y="160" as="sourcePoint" />
            <mxPoint x="1920" y="535" as="targetPoint" />
          </mxGeometry>
        </mxCell>
        <mxCell id="QWXdeelTslBIVpJSP7KH-113" value="" style="edgeStyle=none;html=1;endArrow=none;verticalAlign=bottom;rounded=0;entryX=0;entryY=0.5;entryDx=0;entryDy=0;" edge="1" parent="1" target="QWXdeelTslBIVpJSP7KH-101">
          <mxGeometry width="160" relative="1" as="geometry">
            <mxPoint x="1770" y="310" as="sourcePoint" />
            <mxPoint x="1920" y="400" as="targetPoint" />
          </mxGeometry>
        </mxCell>
        <mxCell id="QWXdeelTslBIVpJSP7KH-114" value="" style="edgeStyle=none;html=1;endArrow=none;verticalAlign=bottom;rounded=0;entryX=0;entryY=0.5;entryDx=0;entryDy=0;" edge="1" parent="1" target="QWXdeelTslBIVpJSP7KH-105">
          <mxGeometry width="160" relative="1" as="geometry">
            <mxPoint x="1770" y="310" as="sourcePoint" />
            <mxPoint x="1920" y="465" as="targetPoint" />
          </mxGeometry>
        </mxCell>
        <mxCell id="QWXdeelTslBIVpJSP7KH-115" value="" style="edgeStyle=none;html=1;endArrow=none;verticalAlign=bottom;rounded=0;entryX=0;entryY=0.5;entryDx=0;entryDy=0;" edge="1" parent="1" target="QWXdeelTslBIVpJSP7KH-106">
          <mxGeometry width="160" relative="1" as="geometry">
            <mxPoint x="1770" y="310" as="sourcePoint" />
            <mxPoint x="1920" y="535" as="targetPoint" />
          </mxGeometry>
        </mxCell>
        <mxCell id="QWXdeelTslBIVpJSP7KH-116" value="Change message seen status" style="ellipse;whiteSpace=wrap;html=1;" vertex="1" parent="1">
          <mxGeometry x="1910" y="630" width="110" height="50" as="geometry" />
        </mxCell>
        <mxCell id="QWXdeelTslBIVpJSP7KH-118" value="System" style="shape=umlActor;html=1;verticalLabelPosition=bottom;verticalAlign=top;align=center;" vertex="1" parent="1">
          <mxGeometry x="2170" y="400" width="40" height="60" as="geometry" />
        </mxCell>
        <mxCell id="QWXdeelTslBIVpJSP7KH-120" value="" style="edgeStyle=none;html=1;endArrow=none;verticalAlign=bottom;rounded=0;exitX=1;exitY=0.5;exitDx=0;exitDy=0;entryX=0;entryY=0.3333333333333333;entryDx=0;entryDy=0;entryPerimeter=0;" edge="1" parent="1" source="QWXdeelTslBIVpJSP7KH-116" target="QWXdeelTslBIVpJSP7KH-118">
          <mxGeometry width="160" relative="1" as="geometry">
            <mxPoint x="1880" y="480" as="sourcePoint" />
            <mxPoint x="2040" y="480" as="targetPoint" />
          </mxGeometry>
        </mxCell>
        <mxCell id="QWXdeelTslBIVpJSP7KH-121" value="Rating and feedback" style="shape=rect;html=1;verticalAlign=top;fontStyle=1;whiteSpace=wrap;align=center;" vertex="1" parent="1">
          <mxGeometry x="2350" y="80" width="290" height="440" as="geometry" />
        </mxCell>
        <mxCell id="QWXdeelTslBIVpJSP7KH-122" value="Submit feedback" style="ellipse;whiteSpace=wrap;html=1;" vertex="1" parent="1">
          <mxGeometry x="2450" y="115" width="90" height="40" as="geometry" />
        </mxCell>
        <mxCell id="QWXdeelTslBIVpJSP7KH-123" value="Rating chef" style="ellipse;whiteSpace=wrap;html=1;" vertex="1" parent="1">
          <mxGeometry x="2450" y="175" width="90" height="40" as="geometry" />
        </mxCell>
        <mxCell id="QWXdeelTslBIVpJSP7KH-124" value="View feedback" style="ellipse;whiteSpace=wrap;html=1;" vertex="1" parent="1">
          <mxGeometry x="2440" y="232.5" width="110" height="50" as="geometry" />
        </mxCell>
        <mxCell id="QWXdeelTslBIVpJSP7KH-125" value="Averaging rating" style="ellipse;whiteSpace=wrap;html=1;" vertex="1" parent="1">
          <mxGeometry x="2440" y="295" width="110" height="50" as="geometry" />
        </mxCell>
        <mxCell id="QWXdeelTslBIVpJSP7KH-126" value="delete feedback" style="ellipse;whiteSpace=wrap;html=1;" vertex="1" parent="1">
          <mxGeometry x="2440" y="365" width="110" height="50" as="geometry" />
        </mxCell>
        <mxCell id="QWXdeelTslBIVpJSP7KH-127" value="User" style="shape=umlActor;html=1;verticalLabelPosition=bottom;verticalAlign=top;align=center;" vertex="1" parent="1">
          <mxGeometry x="2270" y="140" width="40" height="60" as="geometry" />
        </mxCell>
        <mxCell id="QWXdeelTslBIVpJSP7KH-128" value="Chef" style="shape=umlActor;html=1;verticalLabelPosition=bottom;verticalAlign=top;align=center;" vertex="1" parent="1">
          <mxGeometry x="2270" y="290" width="30" height="60" as="geometry" />
        </mxCell>
        <mxCell id="QWXdeelTslBIVpJSP7KH-131" value="" style="edgeStyle=none;html=1;endArrow=none;verticalAlign=bottom;rounded=0;exitX=1;exitY=0.3333333333333333;exitDx=0;exitDy=0;exitPerimeter=0;entryX=0;entryY=0.5;entryDx=0;entryDy=0;" edge="1" parent="1" source="QWXdeelTslBIVpJSP7KH-128" target="QWXdeelTslBIVpJSP7KH-124">
          <mxGeometry width="160" relative="1" as="geometry">
            <mxPoint x="2320" y="330" as="sourcePoint" />
            <mxPoint x="2456" y="207" as="targetPoint" />
          </mxGeometry>
        </mxCell>
        <mxCell id="QWXdeelTslBIVpJSP7KH-137" value="" style="edgeStyle=none;html=1;endArrow=none;verticalAlign=bottom;rounded=0;exitX=1;exitY=0.3333333333333333;exitDx=0;exitDy=0;exitPerimeter=0;entryX=0;entryY=0.5;entryDx=0;entryDy=0;" edge="1" parent="1" source="QWXdeelTslBIVpJSP7KH-127" target="QWXdeelTslBIVpJSP7KH-122">
          <mxGeometry width="160" relative="1" as="geometry">
            <mxPoint x="2310" y="320" as="sourcePoint" />
            <mxPoint x="2450" y="268" as="targetPoint" />
          </mxGeometry>
        </mxCell>
        <mxCell id="QWXdeelTslBIVpJSP7KH-138" value="" style="edgeStyle=none;html=1;endArrow=none;verticalAlign=bottom;rounded=0;entryX=0;entryY=0.5;entryDx=0;entryDy=0;" edge="1" parent="1" target="QWXdeelTslBIVpJSP7KH-123">
          <mxGeometry width="160" relative="1" as="geometry">
            <mxPoint x="2310" y="160" as="sourcePoint" />
            <mxPoint x="2460" y="145" as="targetPoint" />
          </mxGeometry>
        </mxCell>
        <mxCell id="QWXdeelTslBIVpJSP7KH-139" value="" style="edgeStyle=none;html=1;endArrow=none;verticalAlign=bottom;rounded=0;entryX=0;entryY=0.5;entryDx=0;entryDy=0;" edge="1" parent="1" target="QWXdeelTslBIVpJSP7KH-124">
          <mxGeometry width="160" relative="1" as="geometry">
            <mxPoint x="2310" y="160" as="sourcePoint" />
            <mxPoint x="2460" y="205" as="targetPoint" />
          </mxGeometry>
        </mxCell>
        <mxCell id="QWXdeelTslBIVpJSP7KH-140" value="" style="edgeStyle=none;html=1;endArrow=none;verticalAlign=bottom;rounded=0;entryX=0;entryY=0.5;entryDx=0;entryDy=0;" edge="1" parent="1" target="QWXdeelTslBIVpJSP7KH-126">
          <mxGeometry width="160" relative="1" as="geometry">
            <mxPoint x="2310" y="160" as="sourcePoint" />
            <mxPoint x="2450" y="268" as="targetPoint" />
          </mxGeometry>
        </mxCell>
        <mxCell id="QWXdeelTslBIVpJSP7KH-141" value="System" style="shape=umlActor;html=1;verticalLabelPosition=bottom;verticalAlign=top;align=center;" vertex="1" parent="1">
          <mxGeometry x="2670" y="235" width="40" height="60" as="geometry" />
        </mxCell>
        <mxCell id="QWXdeelTslBIVpJSP7KH-142" value="" style="edgeStyle=none;html=1;endArrow=none;verticalAlign=bottom;rounded=0;entryX=0;entryY=0.3333333333333333;entryDx=0;entryDy=0;entryPerimeter=0;exitX=1;exitY=0.5;exitDx=0;exitDy=0;" edge="1" parent="1" source="QWXdeelTslBIVpJSP7KH-125" target="QWXdeelTslBIVpJSP7KH-141">
          <mxGeometry width="160" relative="1" as="geometry">
            <mxPoint x="2310" y="320" as="sourcePoint" />
            <mxPoint x="2450" y="268" as="targetPoint" />
          </mxGeometry>
        </mxCell>
      </root>
    </mxGraphModel>
  </diagram>
</mxfile>
